<?xml version="1.0" encoding="UTF-8"?>
<svg id="Layer_1" data-name="Layer 1" xmlns="http://www.w3.org/2000/svg" version="1.1" xmlns:xlink="http://www.w3.org/1999/xlink" viewBox="0 0 1059.7 363.1">
  <defs>
    <style>
      .cls-1 {
        fill: url(#New_Gradient_Swatch_1-11);
      }

      .cls-1, .cls-2, .cls-3, .cls-4, .cls-5, .cls-6, .cls-7, .cls-8, .cls-9, .cls-10, .cls-11 {
        stroke: #000;
        stroke-miterlimit: 10;
        stroke-width: .5px;
      }

      .cls-2 {
        fill: url(#New_Gradient_Swatch_1-7);
      }

      .cls-3 {
        fill: url(#New_Gradient_Swatch_1-5);
      }

      .cls-4 {
        fill: url(#New_Gradient_Swatch_1-3);
      }

      .cls-5 {
        fill: url(#New_Gradient_Swatch_1-6);
      }

      .cls-6 {
        fill: url(#New_Gradient_Swatch_1);
      }

      .cls-7 {
        fill: url(#New_Gradient_Swatch_1-10);
      }

      .cls-8 {
        fill: url(#New_Gradient_Swatch_1-8);
      }

      .cls-9 {
        fill: url(#New_Gradient_Swatch_1-2);
      }

      .cls-10 {
        fill: url(#New_Gradient_Swatch_1-9);
      }

      .cls-11 {
        fill: url(#New_Gradient_Swatch_1-4);
      }
    </style>
    <linearGradient id="New_Gradient_Swatch_1" data-name="New Gradient Swatch 1" x1="52.8" y1="302.9" x2="216.2" y2="-146" gradientTransform="translate(0 363.9) scale(1 -1)" gradientUnits="userSpaceOnUse">
      <stop offset="0" stop-color="#fdca66"/>
      <stop offset=".2" stop-color="#f36e2f"/>
      <stop offset=".5" stop-color="#dc3867"/>
      <stop offset=".7" stop-color="#992fbc"/>
      <stop offset="1" stop-color="#6051d0"/>
    </linearGradient>
    <linearGradient id="New_Gradient_Swatch_1-2" data-name="New Gradient Swatch 1" x1="170.7" y1="345.8" x2="334.1" y2="-103.1" xlink:href="#New_Gradient_Swatch_1"/>
    <linearGradient id="New_Gradient_Swatch_1-3" data-name="New Gradient Swatch 1" x1="191.3" y1="353.3" x2="354.7" y2="-95.6" xlink:href="#New_Gradient_Swatch_1"/>
    <linearGradient id="New_Gradient_Swatch_1-4" data-name="New Gradient Swatch 1" x1="285.8" y1="387.7" x2="449.2" y2="-61.2" xlink:href="#New_Gradient_Swatch_1"/>
    <linearGradient id="New_Gradient_Swatch_1-5" data-name="New Gradient Swatch 1" x1="357.7" y1="413.8" x2="521" y2="-35" xlink:href="#New_Gradient_Swatch_1"/>
    <linearGradient id="New_Gradient_Swatch_1-6" data-name="New Gradient Swatch 1" x1="523" y1="474" x2="686.4" y2="25.2" xlink:href="#New_Gradient_Swatch_1"/>
    <linearGradient id="New_Gradient_Swatch_1-7" data-name="New Gradient Swatch 1" x1="614.3" y1="507.2" x2="777.6" y2="58.4" xlink:href="#New_Gradient_Swatch_1"/>
    <linearGradient id="New_Gradient_Swatch_1-8" data-name="New Gradient Swatch 1" x1="718.8" y1="545.3" x2="882.2" y2="96.4" xlink:href="#New_Gradient_Swatch_1"/>
    <linearGradient id="New_Gradient_Swatch_1-9" data-name="New Gradient Swatch 1" x1="754.8" y1="558.4" x2="918.2" y2="109.5" xlink:href="#New_Gradient_Swatch_1"/>
    <linearGradient id="New_Gradient_Swatch_1-10" data-name="New Gradient Swatch 1" x1="804.9" y1="576.6" x2="968.3" y2="127.8" xlink:href="#New_Gradient_Swatch_1"/>
    <linearGradient id="New_Gradient_Swatch_1-11" data-name="New Gradient Swatch 1" x1="864.5" y1="598.3" x2="1027.9" y2="149.5" xlink:href="#New_Gradient_Swatch_1"/>
  </defs>
  <path class="cls-6" d="M29.8,236.6c24.5-36.6,64.5-44,95.5-34.6,10.6-21.2,17.3-36.9,17.3-36.9,36.1-95.7,7.9-110.8,7.9-110.8-16.1-8.7-44.2,18.5-44.2,18.5-47.3,44.3-41.5,71.9-37.6,77.6,3.3,3.7,3.6,16.5-1.8,18.8-10.3,3.7-17.3-8.1-17.3-8.1-28.2-42,30.3-99.4,30.3-99.4,0,0,30.3-33.9,65.5-24.8,21.5,5.4,51.5,39.6,28.5,118.5,0,0-7.6,26.9-23.3,59.1,5.8,4.4,10.6,9.7,13.6,15.8,0,0,7.9,13.1,8.8,27.9.3,3-3.3,4-4.2,1.3-3-6.4-7.6-14.8-14.2-20.8-3.9-3.7-7.9-6.7-11.8-9.1-12.1,21.5-27.6,44-46.7,61.8-21.2,19.5-42.7,28.9-62.1,19.8,0,0-41.8-17.8-3.9-74.5h0ZM35.6,302.1c23.6,11.4,57-38.6,80-81.3-11.2-1.3-22.7,2.4-31.5,6.7-9.4,4.7-16.1,10.4-16.1,10.4-10.9,9.1-17.9,15.8-23.3,22.5-24.5,30.9-9.1,41.6-9.1,41.6h0ZM36.8,241.7c1.5-1.7,3-3.4,4.5-5,1.5-1.3,3-3,4.8-4.4,3-2.7,6.4-5.4,9.7-7.7,6.7-4.7,13.3-8.1,19.7-10.7,3.3-1.3,6.7-2.4,9.7-3,3-1,6.4-1.3,9.1-1.7,6.1-1,11.8-.7,16.7-.3,5.1.3,9.7,1.3,13.6,2,3.6,1,7,2,9.7,3,.6.3,1.2.3,1.8.7s1.2.3,1.8.7c.6,0,.9.3,1.5.3.3.3.6.3.9.7,1.5.3,2.1.7,2.1.7l-1.8-1c-.3-.3-.6-.7-.9-.7-.3-.3-.9-.3-1.2-.7-.6-.3-1.2-.7-1.8-1-.9-.3-1.5-.7-2.1-1-3-1.7-5.8-3-9.1-4-6.1-2-12.7-3.7-19.4-4s-13.3.3-19.7,1.7c-6.7,1.7-12.4,4-17.9,6.7-5.4,3-10,6.4-14.2,9.4-3.9,3.4-7.3,6.7-9.7,9.7-2.7,2.7-4.8,5.4-6.1,7.1-.6.7-.9,1.3-1.5,2,0,.2-.1.3-.3.3v.3h0ZM116.8,46.2c-4.5,1.7-9.1,4-13.6,6.7-4.8,3-9.4,6.4-13.6,10.1s-8.2,7.7-11.8,11.7c-3.6,4.4-7,8.7-9.7,13.1-5.4,8.7-9.4,17.1-11.8,23.2-.9,3-1.8,5.7-2.4,7.4-.3,1-.3,1.7-.3,2-.3.3-.3.7-.3.7.6-1.7,1.5-3.4,2.1-5l2.7-5c1.5-3.4,3.3-6.4,5.1-9.1,3.3-6,7-11.1,10.9-16.1,7.3-9.4,14.5-17.1,20.9-22.8,6.4-5.7,12.1-9.7,15.8-12.8.6-.3.9-.7,1.5-.7.3-.3.6-.7,1.2-1s1.2-1,1.8-1.3c.9-.7,1.5-1,1.5-1h0ZM150.4,190c2.7-4.4,5.4-9.1,7.9-13.8,2.4-5,4.5-10.4,6.7-15.8,1.8-5.7,3.6-11.1,4.8-16.5,1.5-5.7,2.4-11.1,3.3-16.1,1.5-10.4,1.8-19.5,1.8-25.9s0-6-.3-7.7v-2.7c-.3,1.7-.3,3.7-.3,5.4-.3,2-.6,3.7-.6,5.7-.6,3.4-.9,7.1-1.5,10.4-.6,3.4-1.2,6.7-1.8,9.7,0,1-.3,1.7-.3,2.7-.3.7-.3,1.3-.6,2.4,0,.7-.3,1.3-.3,2-.3.7-.3,1-.3,1.3s-.3.7-.3,1c-1.2,6-2.7,11.7-4.2,16.8s-2.7,9.7-4.2,14.1c-2.7,8.4-5.1,15.1-7,19.8-.3.7-.3,1-.6,1.7,0,.3-.3,1-.6,1.3-.3,1-.6,1.7-.6,2.4-.6,1-.6,1.7-.9,1.7h0Z"/>
  <path class="cls-9" d="M267.7,143.6c-3.9,11.7-10.3,22.8-13.9,35.3-3,9.1-9.7,29.9-4.2,35.9,1.8,2,4.8,5.7,3.6,9.4-1.5,4-6.1,4.4-9.1,3.7-16.4-4-14.8-30.6-12.7-45-10.9,21.2-23.6,39.6-33.6,38.3-13.3-1.3-13-19.1-13-19.1-.9-21.5,12.4-70.2,38.5-75.6,12.1-2.4,18.2,7.1,21.2,14.8,2.7-5,5.4-10.1,8.5-14.8,1.8-3,5.8-4.4,8.2-2,5.1,4.4,9.4,11.7,6.7,19.1h0ZM203.2,162.4c2.7-6,5.8-11.7,9.1-15.8,1.8-2.4,3.6-4,5.4-5.7,1.5-1.3,3.3-2.4,4.8-3,1.5-1,2.7-1.3,3.6-1.3.3-.3.6-.3.9-.3h.3c-.3,0-.9-.3-1.5-.3h-1.2c-1.2.3-2.1.3-3,.7-1.8.3-3.6,1.3-5.4,2.4-3.3,2-6.1,4.7-8.5,7.4-2.1,2.7-3.9,5.7-5.4,8.7-.3.7-.6,1.3-.9,2,0,.3-.3.7-.3,1-.3.3-.3.7-.6,1-.3.7-.6,1.3-.6,2-.3.7-.6,1.3-.9,2-1.5,5-2.1,9.4-2.4,12.1-.6,3-.6,4.7-.6,4.7,2.4-5.7,4.5-11.7,7.3-17.5h0ZM240.4,150c-3.9-3.4-15.5-9.7-29.7,22.2,0,0-14.5,31.9-6.4,35.6,6.1,2.7,32.7-51,36.1-57.8h0ZM254.4,158c-1.5,1.3-2.7,3-3.9,4.4-.9,1.7-2.1,3-3,4.7-1.8,3.4-3.3,6.4-4.5,9.7-.9,3-1.8,6-2.4,9.1s-.9,5.7-.9,8.1c-.3,5,.3,9.1.9,11.7,0,1.3.3,2,.6,2.7,0,.7.3,1.3.3,1.3,0-3,.3-5.7.6-8.7s.9-6,1.2-8.7c1.2-6,2.4-11.7,3.9-16.8,1.8-5,3.3-9.4,4.8-12.4.6-1.7,1.2-2.7,1.5-3.7.3-.3.6-.7.6-1l.3-.3Z"/>
  <path class="cls-4" d="M333.1,292.7s1.5,4.4-2.1,5.7c-3.3.7-5.4-3.7-5.4-3.7-9.7-12.1-28.8-27.5-50-36.3-14.8,32.9-37.6,63.5-72.1,54.1,0,0-17.3-5-16.7-24.2.6-19.5,18.8-52.4,57-55.7,5.8-.7,11.5-.3,17.3.3,7-18.1,11.8-35.9,14.2-45.3,4.5-15.8,9.4-32.6,13-48.7.6-3,3.6-4.7,6.4-3.7,2.4,1,5.8,2.7,8.5,4.7,5.8,3.7,8.2,11.4,5.8,18.5-2.4,7.4-6.4,20.1-10.9,35.6-3,8.1-7.6,25.9-14.8,45.3,20.9,9.4,40.3,27.2,50,53.4h0ZM252.8,252.1c-5.8-1-11.5-1-17-.3-23.6,3.4-35.8,20.5-41.2,31.2-2.4,4.7,0,10.4,4.5,11.7,23.3,5.4,40.9-16.8,53.6-42.7h0ZM257.7,270.9c-.6,1-1.2,2-1.8,3s-1.5,2-2.1,3c-1.2,2-2.4,3.7-3.9,5.4-1.2,1.7-2.7,3.4-3.9,5-.6.7-1.5,1.3-2.1,2s-.6.7-.9,1.3c-.3.3-.6.7-1.2,1l-.3.3c-.2.2-.4.3-.6.3-.3.3-.6.7-.9,1-.6.7-1.5,1.3-2.1,2-.6.3-1.2,1-1.8,1.3-.6.3-.9.7-1.2,1-.3,0-.6.3-.9.7-2.7,1.7-5.1,3.4-7.6,4.4-.6.3-1.2.3-1.8.7s-1.2.7-1.8.7c-.3.3-.9.3-1.5.7-.6,0-1.2.3-1.5.3-.6.3-.9.3-1.5.3-.6.3-.9.3-1.5.3-.3.3-.6.3-1.2.3s-.6,0-1.2.3h-1.8c-.6.3-.9.3-1.5.3h-1.2c3,1,6.7,1.3,10,1s7-1,10.3-2.7c3.3-1.3,6.7-3.4,9.4-5.7,2.7-2.4,5.1-5,7.3-7.7,4.2-5.4,7-10.4,8.8-14.4.9-2,1.5-3.7,1.8-4.7.3-.7.3-1,.6-1.3v-.3h0ZM304.7,262.5c-2.7-3-5.8-6-9.1-8.7-3.6-2.7-7.3-5-11.2-7.1s-8.2-3.7-12.1-5c-4.2-1-8.2-1.7-12.1-2.4-7.6-.7-14.5-.3-19.1.7-2.4.3-4.2.7-5.8,1-.6.3-.9.3-1.2.3-.3.3-.6.3-.6.3,1.5-.3,2.7-.3,4.2-.3h3.9c2.7,0,5.1,0,7.9.3,4.8.3,9.7,1.3,13.9,2.4,8.8,2,16.4,4.7,22.4,7.7,6.1,2.7,10.6,5.7,13.9,7.7.3.3.6.3.9.7.3.3.6.3.9.7l1.8,1,1.2.7h0ZM274,217.5c3.6-6,6.7-13.4,9.4-20.8,2.7-7.4,4.5-15.1,6.4-22.2,1.5-7.1,2.4-13.1,3-17.5.3-2.4.6-4,.6-5.4.3-1,.3-1.7.3-1.7-1.5,5-3,9.7-4.5,14.1-.3,1.3-.6,2.4-.9,3.4s-.6,2.4-.9,3.4c-.9,2-1.5,4.4-2.1,6.4-2.4,8.1-4.5,15.1-6.1,21.2-.3,1.3-.9,3-1.2,4.4,0,.7-.3,1.3-.6,1.7,0,.7-.3,1.3-.3,2-.6,2.4-1.2,4.4-1.8,6-.6,3.4-1.2,5-1.2,5h0ZM332.8,103.6c1.2,2.7.3,6-1.8,8.1-5.8,5-10.3,9.7-13.6,14.8,0,0-6.4,10.1-12.7,7.4-5.8-2-4.5-13.1-4.5-13.1,2.4-18.5,13.3-24.8,17.9-26.9,1.5-.3,2.7-.3,3.9,0,3,1.3,9.1,4.4,10.9,9.7h0ZM322.5,102c-1.2,0-2.7.3-3.9.7-1.5.3-2.7,1-3.9,1.7-2.4,1.7-4.5,4-6.1,6.4-1.2,2.4-2.1,4.7-2.4,6.4-.3.7-.3,1.3-.6,2v.7c.6-1,1.2-1.7,1.8-2.4s1.2-1.3,1.8-2c.9-1.3,2.1-2.4,3-3.4,1.8-2,3.6-3.7,5.1-5,1.5-1.7,2.7-2.7,3.6-3.7.6-.3.9-.7,1.2-1l.3-.3h0Z"/>
  <path class="cls-11" d="M398,143.6c-3.9,11.7-10.3,22.8-13.9,35.3-3,9.1-9.7,29.9-4.2,35.9,1.8,2,4.8,5.7,3.6,9.4-1.5,4-6.1,4.4-9.1,3.7-16.4-4-14.8-30.6-12.7-45-10.9,21.2-23.6,39.6-33.6,38.3-13.3-1.3-13-19.1-13-19.1-.9-21.5,12.4-70.2,38.5-75.6,12.1-2.4,18.2,7.1,21.2,14.8,2.7-5,5.4-10.1,8.5-14.8,1.8-3,5.8-4.4,8.2-2,5.1,4.4,9.4,11.7,6.7,19.1h0ZM333.5,162.4c2.7-6,5.8-11.7,9.1-15.8,1.8-2.4,3.6-4,5.4-5.7,1.5-1.3,3.3-2.4,4.8-3,1.5-1,2.7-1.3,3.6-1.3.3-.3.6-.3.9-.3h.3c-.3,0-.9-.3-1.5-.3h-1.2c-1.2.3-2.1.3-3,.7-1.8.3-3.6,1.3-5.4,2.4-3.3,2-6.1,4.7-8.5,7.4-2.1,2.7-3.9,5.7-5.4,8.7-.3.7-.6,1.3-.9,2,0,.3-.3.7-.3,1-.3.3-.3.7-.6,1-.3.7-.6,1.3-.6,2-.3.7-.6,1.3-.9,2-1.5,5-2.1,9.4-2.4,12.1-.6,3-.6,4.7-.6,4.7,2.4-5.7,4.5-11.7,7.3-17.5h0ZM370.7,150c-3.9-3.4-15.5-9.7-29.7,22.2,0,0-14.5,31.9-6.4,35.6,6.1,2.7,32.7-51,36.1-57.8h0ZM384.7,158c-1.5,1.3-2.7,3-3.9,4.4-.9,1.7-2.1,3-3,4.7-1.8,3.4-3.3,6.4-4.5,9.7-.9,3-1.8,6-2.4,9.1-.6,3-.9,5.7-.9,8.1-.3,5,.3,9.1.9,11.7,0,1.3.3,2,.6,2.7,0,.7.3,1.3.3,1.3,0-3,.3-5.7.6-8.7s.9-6,1.2-8.7c1.2-6,2.4-11.7,3.9-16.8,1.8-5,3.3-9.4,4.8-12.4.6-1.7,1.2-2.7,1.5-3.7.3-.3.6-.7.6-1l.3-.3h0Z"/>
  <path class="cls-3" d="M451.9,230.9s3.9,8.1-2.4,9.1c-7.3,1-24.2-11.1-15.5-42,8.5-30.9,23.6-54.7,23.6-54.7,0,0-31.8,40-38.8,63.1,0,0-1.8,6.4-6.1,9.4-2.7,1.7-7,2-11.2-1,0,0-12.1-8.1-4.5-34.3,9.4-33.6,24.2-49.4,30-54.7,1.5-1.3,3.6-2,5.4-1.3,1.8.3,3.9,1,5.8,2,5.1,3,6.7,10.4,3,15.1-6.4,8.7-18.8,27.5-23.6,48.7,0,0,42.4-72.9,54.2-64.8,0,0,14.5,8.4,6.4,24.5-8.2,16.1-34.2,61.8-26.4,80.9h0ZM415.9,157.7c2.4-4.7,4.8-9.1,6.7-11.7.9-1.7,1.5-2.7,2.1-3.4.3-.3.3-.7.6-1l.3-.3c-1.5,1.3-3,2.7-4.5,4-1.2,1.3-2.4,2.7-3.6,4.4-1.2,1.3-2.1,2.7-3,4.4-1.2,1.3-2.1,3-2.7,4.4-1.8,3-3,6-3.9,9.1-.9,2.7-1.8,5.4-2.1,8.1-.9,5-1.2,9.1-1.2,11.7.3,1.3.3,2.4.3,3s.3,1.3.3,1.3c.6-3,1.2-5.7,1.8-8.7.9-3,1.8-5.7,2.7-8.7,1.8-5.7,3.9-11.4,6.4-16.5h0ZM449.8,195.3c2.1-7.4,4.5-14.1,7.3-20.1,2.7-6,5.4-11.4,7.3-14.8,1.2-1.7,2.1-3.4,2.7-4,.3-.7.3-1,.6-1.3.3,0,.3-.3.3-.3-1.8,1.7-3.3,3.4-4.8,5-1.5,2-3,3.7-4.2,5.7-1.2,1.7-2.4,3.7-3.6,5.4-.3,1-.9,2-1.5,3,0,.3-.3.7-.6,1.3-.3.3-.6,1-.6,1.3-1.8,3.7-3.3,7.4-4.2,10.7-1.2,3.7-1.8,6.7-2.4,9.7-1.2,6-1.2,11.1-1.2,14.4s.3,3,.3,3.7c0,1,.3,1.3.3,1.3.6-3.4,1.2-6.7,1.8-10.4.9-3.7,1.8-7.4,2.7-10.7h0Z"/>
  <path class="cls-5" d="M797.7,292.7s0,8.1-5.1,8.7c-4.8,1-6.7-5-8.5-7.4-6.4-13.8-37.9-32.6-81.2,3-35.2,28.9-54.5,13.8-54.5,13.8,0,0-49.1-27.9,2.1-146.1-33.3,49.7-49.1,47.3-49.1,47.3-15.8-1.3-2.7-22.2,5.1-71.5-31.2,56.4-34.2,129.6-71.2,119.9-46.7-12.4,14.2-94.4,33.9-146.7,14.8-34.3,2.4-38.9,2.4-38.9-13.9-11.4-45.2,23.8-45.2,23.8-15.5,15.8-24.5,38.6-25.5,53.1-.3,5.4-5.8,8.4-9.7,5.4-33.9-23.8,8.2-69.5,8.2-69.5,0,0,34.5-41.3,68.5-28.9,17.6,6.4,32.7,22.2,17,69.2-23.9,69.9-44.8,103.8-38.8,105.8,1.5,0,9.1-.3,65.8-141.4,2.1-11.1,8.5-26.5,27-9.7,0,0,15.1,13.4-.9,50.7-17.9,43-32.1,55.7-28.8,57.1,9.1,3.4,71.2-77.9,80.9-126.6.9-6.7,1.2-12.4.3-17.5-.9-6.4,4.5-11.7,10.3-10.1,8.5,3,15.8,8.7,18.8,23.8,0,0,8.8,24.8-32.4,94.7-50,84.6-54.5,142.7-26.7,148.1,13.3,2.7,53.3-62.8,103.9-54.4,0,0,34.5,4.7,33.3,44.3h0ZM549.5,64.4c-4.2.7-8.8,1.7-13,3.4-4.5,1.7-8.8,4.4-13,7.1-4.2,3-7.9,6.4-11.5,9.7-3.3,3.7-6.4,7.4-9.1,11.1-5.4,7.7-9.1,14.8-11.5,20.1-1.2,2.7-1.8,5-2.4,6.4-.3.7-.6,1.3-.6,1.7l-.3.7c1.5-3,3.3-5.7,4.8-8.7,1.8-2.7,3.3-5,5.1-7.7,1.8-2.4,3.3-4.7,5.1-7.1.9-1.3,1.8-2.4,2.7-3.4.3-.7.9-1,1.2-1.7.3-.3.9-1,1.2-1.3,3.6-4,7-7.7,10.3-10.7s6.7-5.7,9.7-8.1c6.4-4.4,11.5-7.1,15.5-8.7.3-.3.9-.7,1.2-.7s.6-.3.6-.3c.3,0,.3-.3.6-.3.6-.3,1.2-.3,1.8-.7.9-.3,1.5-.7,1.5-.7h0ZM552.9,177.2c4.8-10.4,9.7-20.8,13.3-30.6,3.6-9.4,6.7-18.1,8.5-24.2.9-3,1.8-5.7,2.1-7.4.3-.7.6-1.3.6-2s.3-.7.3-.7c-1.5,3.7-3,7.1-4.5,10.1-1.2,3.4-2.7,6.7-4.2,9.7-2.7,6.4-5.4,12.4-7.9,17.8-1.5,3-2.7,5.7-3.9,8.1-1.2,2.7-2.1,5.4-3.3,7.7-1.2,2.7-2.1,5-3,7.1-.6,1.3-1.2,2.4-1.5,3.4-.6,1-.9,2.4-1.5,3.4-.9,2-1.8,4-2.4,5.7-.9,2-1.5,3.7-2.4,5.4-1.2,3-2.4,6-3.3,8.4-1.8,4.4-2.7,7.1-2.7,7.1,5.1-8.7,10.9-18.5,16.1-28.9h0ZM617.7,160.7c3.9-6.7,8.2-14.4,11.8-22.8,1.8-4,3.6-8.4,5.1-12.4,1.2-4.4,2.4-8.7,2.7-12.8,0-.7.3-1,.3-1.7v-1.3c0-1.3.3-2,.3-3v-2.4c0-.3-.3-.3-.3-.7v-2.7c-.6-3.7-1.2-6.7-2.4-9.1-1.2-2.4-2.4-4-3.3-5-.6-.7-.9-1-1.2-1,0-.3-.3-.3-.3-.3h-.3c.3.3.6.3.9.7s.6.7.6,1l.3.3.3.7.3.3c0,.2.1.3.3.3l.3.7v.3c.3.3.3.7.3,1,.3.3.3.7.6,1,0,.3,0,.7.3,1,.3,1.3.3,2.7.6,4.4,0,.7,0,1.3.3,2v3.7c-.3.3-.3.7-.3,1v3c0,.3-.3.7-.3,1v1c0,.3-.3,1-.3,1.7s-.3,1.3-.3,1.7,0,.7-.3,1v1c-.2.2-.3.4-.3.7,0,.3,0,.7-.3,1-.9,4.7-2.4,8.7-3.9,12.8-1.5,3.7-2.7,7.4-4.2,10.7-2.4,6.7-4.2,11.7-5.4,15.5s-1.8,5.7-1.8,5.7h0ZM658.6,187.6c3.3-6.4,7.3-13.1,11.2-19.8,3.9-6.7,7.9-13.8,11.8-21.2,3.9-7.1,7.9-14.1,11.5-21.5.3-.7.9-1.7,1.2-2.7.6-.7.9-1.7,1.2-2.7.6-.7.9-1.7,1.5-2.4.3-1,.6-2,1.2-2.7,1.5-3.7,3-7.1,4.2-10.4,1.5-3.7,2.7-7.1,3.6-10.4s1.8-6.4,2.4-9.7c1.5-6,1.8-11.7,1.8-16.5s-.9-8.7-1.8-11.1c-.3-1.3-.9-2-1.2-2.7s-.3-1-.3-1c0,.3.3.7.3,1,.3.3.3.7.3,1,.3.7.6,1.3.6,2,.3,1.3.6,2.7.6,4,.3,2.7.3,5,.3,7.7-.3,2.7-.6,5-1.2,7.7-.3,2.4-.9,4.7-1.5,7.1-1.5,4.7-3,9.4-4.5,13.8-1.8,4.4-3.6,8.4-5.4,12.4-3.9,7.7-7.6,15.1-11.2,21.8-3.3,7.1-6.7,13.1-9.4,18.8-5.8,11.4-10.3,20.8-13.3,27.2-.3.7-.6,1.7-.9,2.4l-.9,2c-.3,1-.9,2-1.2,3-.6,1.7-.9,2.7-.9,2.7h0ZM786.8,275.6c-2.1-3.7-4.5-7.4-8.2-10.1-1.5-1.7-3.3-3-5.4-4-1.8-1-3.9-2-6.1-2.7-4.2-1.7-8.8-2.4-13-2.4s-8.5.7-12.1,1.7c-3.9.7-7.3,2-10.6,3.4-3,1-5.4,2.4-7.9,3.7-2.1,1-3.6,2-4.8,2.7-.6.3-.9.7-1.2,1s-.6.3-.6.3c2.7-1.3,5.4-2,7.9-3,2.4-1,5.1-1.7,7.6-2.4,4.8-1.3,9.7-2,13.9-2.7,4.5-.3,8.8-.3,12.7,0,3.6.3,7.3,1.3,10.3,2.4,1.5.3,3,1,4.2,1.7.6.3,1.2.7,1.8,1s1.2.7,1.8,1c2.1,1.7,3.9,3,5.4,4.4,1.5,1,2.4,2,3,3,.9.7,1.2,1,1.2,1h0Z"/>
  <path class="cls-2" d="M755.9,202.4s-20,34.9-48.2,16.5c-22.4-14.8-3.6-56.4-3.6-56.4,0,0,20.3-49.7,47.3-34.9,0,0,19.1,8.7,2.7,38.3-10.9,20.1-23.9,18.5-30.6,15.8-4.2,12.1-5.8,22.5-.3,26.2,0,0,13.3,8.4,26.1-10.7,0,0,2.7-5.4,6.7-3.4,2.7,1.3,2.4,4.7,0,8.7h0ZM712.9,171.1c2.7-6.7,6.1-13.1,9.4-18.8,3-5.4,6.4-10.1,9.1-13.1.6-.7,1.2-1.3,1.5-1.7.6-.7,1.2-1.3,1.5-1.7s.6-.7.9-.7c0,0,0-.3.3-.3-.6.3-.9.7-1.5.7-.6.3-.9.7-1.5,1-.3.3-.9.7-1.2,1-.6.3-.9.7-1.5,1-.6.7-1.5,1.3-2.4,2.4-.9.7-1.5,1.3-2.4,2.4-.3.3-.6.7-.9,1s-.9,1-1.2,1.3c-.6.7-1.2,1.7-1.8,2.4-.3.3-.6,1-.9,1.3-.3.3-.6,1-.9,1.3-.6.7-1.2,1.7-1.8,2.4-2.1,3.4-3.9,7.1-5.4,10.1-.6,1.7-1.2,3.4-1.8,4.7-.6,1.7-1.2,3-1.5,4.4-1.2,3-1.8,5.4-2.4,7.7,0,.7-.3,1-.3,1.7,0,.2-.1.4-.3.7v.7c-.3,1-.3,2-.6,2.7-.3,3.4-.6,5-.6,5,.6-1.3,1.5-3,2.1-4.7.3-.7.6-1.7.9-2.4,0-.3.3-.7.6-1.3,0-.3.3-.7.3-1,.9-1.7,1.5-3.4,2.1-5,.9-1.7,1.5-3.4,2.4-5h0ZM728.9,168.1c-.9,1.7-1.5,3.7-2.4,5.4,7.9,3,14.2-3.4,19.1-11.4,5.8-9.7,9.1-21.2,4.8-22.5-8.2-2.7-21.5,28.5-21.5,28.5h0Z"/>
  <path class="cls-8" d="M835.9,229.9s1.8,10.1-3,11.7c-2.1.7-7,1-10.9-8.1-4.2-9.1-7.6-26.2-3-53.1-12.1,20.1-27.9,42.3-33.6,45.7-3.6,2.4-7.6,1.3-10.9-.3-6.7-3-10.6-10.4-10.3-18.1.3-10.4,3.6-23.2,7.6-34.3,7.3-20.1,25.5-48.7,40.9-48.7s16.7,5.7,18.8,9.1c20.3-58.4,43.3-89,50.3-97.4,1.2-1.3,3.3-2,5.1-1.3,2.1.7,5.2,1.7,7.9,4,6.1,4.4,7.6,13.8,3,20.1-16.1,22.8-69.1,104.1-61.8,170.6h0ZM786.5,167.1c3.3-6.4,6.7-12.8,10.3-17.8,3.3-5.4,7-9.4,9.7-12.1.3-.3.6-.7.9-1s.6-.7.9-.7c.3-.3.6-.7.9-.7,0-.2.1-.3.3-.3,0-.2.1-.3.3-.3,0-.3.3-.3.6-.3,0-.3.3-.3.3-.3l.3-.3c-.3,0-.6.3-.6.3-.3,0-.6.3-.9.3s-.6.3-.6.3c-.3,0-.6.3-.9.3-.3.3-.9.7-1.5,1,0,0-.3,0-.6.3-.3,0-.3.3-.6.3-.6.3-.9.7-1.5,1-.3.3-.6.7-1.2,1-.3.3-.9.7-1.2,1s-.6.7-1.2,1c-.3.3-.6,1-1.2,1.3-.3.3-.6.7-.9,1s-.9.7-1.2,1c-.3.7-.6,1-.9,1.3-1.5,1.7-2.7,3-3.9,4.7-.3.7-.9,1.7-1.5,2.4s-.9,1.7-1.5,2.4c-.6,1-.9,1.7-1.5,2.4,0,.3-.3.7-.6,1.3,0,.3-.3.7-.6,1-.3.7-.6,1.7-1.2,2.4,0,.3-.3.7-.3,1-.2.2-.3.4-.3.7-.3,0-.3.3-.3.3-.6,1.7-1.2,3-1.8,4.4s-.6,1.3-.9,2c-.3.7-.3,1.3-.6,1.7-.3,1.3-.9,2.4-1.2,3.7-.6,2-1.2,4-1.5,5.4-.9,3.4-1.2,5-1.2,5,3.3-5.7,6.4-12.4,9.7-18.5h0ZM827.7,136.9c-4.5-1.3-36.4,35.9-47.3,82.6,0,0,22.7-20.5,47.6-75.2v-.3s0-.3.3-.3c0-.3,0-.7.3-1,.3-1.7,1.2-5.4-.9-5.7h0ZM843.8,126.2c3.6-7.7,7.6-16.1,11.8-24.5s8.5-16.8,12.4-24.2c3.9-7.4,7.6-13.8,10.3-18.1,1.2-2.4,2.4-4,3-5,.6-.7.9-1,.9-1.3.3-.3.3-.7.3-.7-2.1,2-3.9,4.4-5.8,6.7-.9,1-1.8,2-2.7,3.4-.9,1-1.8,2.4-2.4,3.4-.9,1-1.8,2.4-2.4,3.4-.9,1-1.5,2.4-2.4,3.4-.3.7-.6,1-.9,1.7-.6.7-.9,1-1.2,1.7-.6,1-1.2,2.4-1.8,3.4-5.1,8.7-9.1,17.1-11.8,24.2-.6,1.7-1.5,3.4-2.1,4.7-.3,1.7-.9,3.4-1.5,4.7-.3,1.3-.9,2.7-1.2,3.7-.3,1.3-.6,2.4-.9,3.4-1.2,4-1.5,6.4-1.5,6.4h0Z"/>
  <path class="cls-10" d="M916.2,150.7c-3.3,1-5.4-2.4-5.4-2.4-4.2-3.4-23.6,3.4-29.4,14.4-2.1,4,.9,6.7,3.9,9.4,4.2,3.7,16.7,15.1,13.3,31.2-3.3,16.8-16.7,21.5-28.8,20.5-13.6-.7-13-12.4-10.6-13.8,3-1.7,3.6,1.7,5.4,1.3,7.3-1.3,12.7-4.4,13.6-11.7,1.8-17.5-17-30.9-17-30.9-8.8-10.4-1.5-23.8,11.5-34.3,22.4-17.8,40.3-8.1,40.3-8.1,12.4,6,9.4,22.2,3,24.2h0ZM909.8,134.2c-2.4-1-4.8-2-7.9-2.4-2.7-.7-5.4-.3-8.5,0-2.7.7-5.8,1.7-8.2,3-2.4,1.3-4.8,3-7,4.7-3.9,3.7-6.7,7.4-8.5,10.4-.9,1.3-1.5,2.4-2.1,3.4,0,.3-.3.7-.3,1-.3,0-.3.3-.3.3,1.2-1.7,2.7-3,3.9-4,1.2-1.3,2.7-2.7,3.9-3.7,2.4-2.4,5.2-4,7.6-5.7,2.4-1.7,4.8-2.7,7.3-3.7,2.1-1,4.2-1.7,6.4-2.4,3.9-1,7.6-1,9.7-1h3.9ZM890.4,199.3c0,1.3-.3,3-.9,4.4,0,.7-.3,1-.6,1.7s-.3,1-.6,1.7c-.3.3-.3,1-.6,1.3-.3.3-.6.7-.6,1s-.3.3-.3.7c0,0,0,.3-.3.3,0,.3-.3.7-.3.7-.3.3-.3.7-.3.7.3-.3.6-.7.9-.7.2-.2.4-.3.6-.3,0-.3.3-.3.3-.7.6-.3.9-.3,1.2-.7.3-.3.6-.7.9-1,.9-1.7,2.1-3.4,2.7-5,.6-2,.9-4,.9-6s-.3-4-.9-5.7c-.6-1.7-1.2-3-2.1-4.4-.6-1-1.5-2-2.1-3-.6-.7-1.2-1.3-1.5-1.7-.3,0-.6-.3-.6-.3h-.3c.9,1,1.2,2,1.8,3,.3,1,.9,2,1.2,3l.9,3c.3,1,.3,2,.6,3,.3,1.7.3,3.4,0,5Z"/>
  <path class="cls-7" d="M964.4,186.9s-17.6,45-40.6,36.9c0,0-19.4-4.7-3.9-47.7,0,0,13.3-36.6,33.3-49.4,2.1-1,4.5-2,6.7-2s6.7,0,10.3,1c5.8,1.7,7,9.7,2.4,13.4-1.8,1.3-3.9,3-6.4,5.4,1.2.3,2.4.7,3.6,1.7,3.3,3.7,6.4,13.8-5.4,40.6h0ZM931,172.5c3.3-7.1,7-13.8,10.9-19.1,3.9-5.7,7.9-10.1,10.6-13.1,1.5-1.7,2.7-2.7,3.6-3.4.3-.3.6-.7.9-1,.3,0,.3-.3.3-.3-.9.7-2.1,1.3-3,2-.9.3-2.1,1-3,2-1.8,1.3-3.6,2.7-5.4,4.4-3.3,3-6.4,6.4-8.8,9.7-5.1,7.1-8.2,14.1-10.3,20.1-2.1,6-3,11.1-3.3,14.4-.3,1.7-.3,3-.3,4v1.3c.9-3.4,2.1-7.1,3.6-10.4,1.2-3.7,2.7-7.4,4.2-10.7h0ZM957.7,182.9c2.7-7.4,14.5-38.3,1.8-30.6-4.5,5.4-9.1,12.1-13.9,20.5,0,0-17.3,29.9-11.2,36.6s19.1-15.8,23.3-26.5Z"/>
  <path class="cls-1" d="M1040.4,150.7c-3.3,1-5.4-2.4-5.4-2.4-4.2-3.4-23.6,3.4-29.4,14.4-2.1,4,.9,6.7,3.9,9.4,4.2,3.7,16.7,15.1,13.3,31.2-3.3,16.8-16.7,21.5-28.8,20.5-13.6-.7-13-12.4-10.6-13.8,3-1.7,3.6,1.7,5.4,1.3,7.3-1.3,12.7-4.4,13.6-11.7,1.8-17.5-17-30.9-17-30.9-8.8-10.4-1.5-23.8,11.5-34.3,22.4-17.8,40.3-8.1,40.3-8.1,12.4,6,9.4,22.2,3,24.2h0ZM1034.1,134.2c-2.4-1-4.8-2-7.9-2.4-2.7-.7-5.4-.3-8.5,0-2.7.7-5.8,1.7-8.2,3-2.4,1.3-4.8,3-7,4.7-3.9,3.7-6.7,7.4-8.5,10.4-.9,1.3-1.5,2.4-2.1,3.4,0,.3-.3.7-.3,1-.3,0-.3.3-.3.3,1.2-1.7,2.7-3,3.9-4,1.2-1.3,2.7-2.7,3.9-3.7,2.4-2.4,5.2-4,7.6-5.7,2.4-1.7,4.8-2.7,7.3-3.7,2.1-1,4.2-1.7,6.4-2.4,3.9-1,7.6-1,9.7-1h3.9ZM1014.7,199.3c0,1.3-.3,3-.9,4.4,0,.7-.3,1-.6,1.7-.3.7-.3,1-.6,1.7-.3.3-.3,1-.6,1.3-.3.3-.6.7-.6,1s-.3.3-.3.7c0,0,0,.3-.3.3,0,.3-.3.7-.3.7-.3.3-.3.7-.3.7.3-.3.6-.7.9-.7.2-.2.4-.3.6-.3,0-.3.3-.3.3-.7.6-.3.9-.3,1.2-.7.3-.3.6-.7.9-1,.9-1.7,2.1-3.4,2.7-5,.6-2,.9-4,.9-6s-.3-4-.9-5.7c-.6-1.7-1.2-3-2.1-4.4-.6-1-1.5-2-2.1-3-.6-.7-1.2-1.3-1.5-1.7-.3,0-.6-.3-.6-.3h-.3c.9,1,1.2,2,1.8,3,.3,1,.9,2,1.2,3,.3,1,.6,2,.9,3s.3,2,.6,3c.3,1.7.3,3.4,0,5h0Z"/>
</svg>